<?xml version="1.0" encoding="utf-8"?>
<!-- Generator: Adobe Illustrator 15.0.0, SVG Export Plug-In . SVG Version: 6.00 Build 0)  -->
<!DOCTYPE svg PUBLIC "-//W3C//DTD SVG 1.1//EN" "http://www.w3.org/Graphics/SVG/1.1/DTD/svg11.dtd">
<svg version="1.1" id="Layer_1" xmlns="http://www.w3.org/2000/svg" xmlns:xlink="http://www.w3.org/1999/xlink" x="0px" y="0px"
	 width="283px" height="283px" viewBox="0 0 283 283" enable-background="new 0 0 283 283" xml:space="preserve">
<g>
	<circle fill="#FFC627" cx="141.348" cy="164.387" r="82.177"/>
	<path fill="#232323" d="M174.064,189.098l-30.736-59.965c-2.708-5.283-9.198-7.377-14.496-4.667
		c-5.284,2.715-7.378,9.203-4.67,14.488l12.834,25.021l-22.971,22.907c-4.215,4.205-4.215,11.019-0.023,15.232
		c2.105,2.104,4.862,3.163,7.619,3.163c2.757,0,5.503-1.059,7.606-3.144l18.074-18.034l7.6,14.821
		c1.91,3.722,5.668,5.862,9.594,5.862c1.646,0,3.322-0.383,4.898-1.189C174.68,200.884,176.773,194.396,174.064,189.098"/>
	<path fill="#232323" d="M214.711,22.075c-6.059,3.879,4.174,39.257-20.109,60.124c-15.324-10.017-33.588-15.889-53.224-15.889
		c-19.576,0-37.791,5.85-53.092,15.8C64.148,61.24,74.333,25.954,68.3,22.075c-9.894-6.36-28.494,30.171-27.063,53.376
		c0.771,12.408,4.046,30.587,12.991,44.671c-6.669,13.214-10.509,28.074-10.509,43.848c0,53.864,43.807,97.688,97.66,97.688
		c53.864,0,97.661-43.822,97.661-97.688c0-15.681-3.806-30.466-10.401-43.614c9.053-14.125,12.353-32.434,13.125-44.905
		C243.203,52.246,224.592,15.714,214.711,22.075 M141.378,240.109c-41.967,0-76.134-34.143-76.134-76.14
		c0-41.977,34.167-76.134,76.134-76.134c41.992,0,76.138,34.157,76.138,76.134C217.516,205.968,183.37,240.109,141.378,240.109"/>
</g>
</svg>
