<?xml version="1.0" encoding="utf-8"?>
<!-- Generator: Adobe Illustrator 19.0.0, SVG Export Plug-In . SVG Version: 6.00 Build 0)  -->
<svg version="1.1" id="Layer_1" xmlns="http://www.w3.org/2000/svg" xmlns:xlink="http://www.w3.org/1999/xlink" x="0px" y="0px"
	 viewBox="-17.2 13 83.2 27" style="enable-background:new -17.2 13 83.2 27;" xml:space="preserve">
<style type="text/css">
	.st0{fill:#4D4D4D;}
	.st1{filter:url(#Adobe_OpacityMaskFilter);}
	.st2{fill:#FFFFFF;}
	.st3{mask:url(#mask-2);}
	.st4{filter:url(#Adobe_OpacityMaskFilter_1_);}
	.st5{mask:url(#mask-5);fill:#4D4D4D;}
	.st6{filter:url(#Adobe_OpacityMaskFilter_2_);}
	.st7{mask:url(#mask-7);fill:#4D4D4D;}
	.st8{filter:url(#Adobe_OpacityMaskFilter_3_);}
	.st9{mask:url(#mask-9);fill:#4D4D4D;}
	.st10{filter:url(#Adobe_OpacityMaskFilter_4_);}
	.st11{mask:url(#mask-11);fill:#4D4D4D;}
	.st12{filter:url(#Adobe_OpacityMaskFilter_5_);}
	.st13{mask:url(#mask-5_1_);fill:#4D4D4D;}
</style>
<title>Group</title>
<desc>Created with Sketch.</desc>
<g id="Page-1">
	<g id="Group">
		<g id="Group-31">
			<g id="Clip-30">
				<polygon id="path-1_1_" class="st0" points="-12.7,13.9 -12.7,24.7 -8.7,24.7 -8.7,13.9 -5.4,13.9 -5.4,39 -8.7,39 -8.7,27.8 
					-12.8,27.8 -12.8,39 -16,39 -16,13.9 				"/>
			</g>
			<defs>
				<filter id="Adobe_OpacityMaskFilter" filterUnits="userSpaceOnUse" x="-21" y="8.9" width="20.6" height="35.1">
					<feColorMatrix  type="matrix" values="1 0 0 0 0  0 1 0 0 0  0 0 1 0 0  0 0 0 1 0"/>
				</filter>
			</defs>
			<mask maskUnits="userSpaceOnUse" x="-21" y="8.9" width="20.6" height="35.1" id="mask-2">
				<g class="st1">
					<polygon id="path-1" class="st2" points="-12.7,13.9 -12.7,24.7 -8.7,24.7 -8.7,13.9 -5.4,13.9 -5.4,39 -8.7,39 -8.7,27.8 
						-12.8,27.8 -12.8,39 -16,39 -16,13.9 					"/>
				</g>
			</mask>
			<g id="Fill-29" class="st3">
				<g>
					<polygon id="path-3" class="st2" points="-21,8.9 -0.4,8.9 -0.4,44 -21,44 					"/>
				</g>
				<g>
					<polygon id="path-3_1_" class="st0" points="-21,8.9 -0.4,8.9 -0.4,44 -21,44 					"/>
				</g>
			</g>
		</g>
		<g id="Group-34" transform="translate(12.000000, 0.000000)">
			<g id="Clip-33">
				<path id="path-4_1_" class="st0" d="M-10.6,13.9h2.7L-2.8,39h-3.3l-1-5.4h-4.4l-1,5.4h-3.3L-10.6,13.9L-10.6,13.9z M-9.2,21.2
					L-9.2,21.2l-1.7,9.1h3.3L-9.2,21.2L-9.2,21.2z"/>
			</g>
			<defs>
				<filter id="Adobe_OpacityMaskFilter_1_" filterUnits="userSpaceOnUse" x="-20.7" y="8.9" width="22.9" height="35.1">
					<feColorMatrix  type="matrix" values="1 0 0 0 0  0 1 0 0 0  0 0 1 0 0  0 0 0 1 0"/>
				</filter>
			</defs>
			<mask maskUnits="userSpaceOnUse" x="-20.7" y="8.9" width="22.9" height="35.1" id="mask-5">
				<g class="st4">
					<path id="path-4" class="st2" d="M-10.6,13.9h2.7L-2.8,39h-3.3l-1-5.4h-4.4l-1,5.4h-3.3L-10.6,13.9L-10.6,13.9z M-9.2,21.2
						L-9.2,21.2l-1.7,9.1h3.3L-9.2,21.2L-9.2,21.2z"/>
				</g>
			</mask>
			<polygon id="Fill-32" class="st5" points="-20.7,8.9 2.2,8.9 2.2,44 -20.7,44 			"/>
		</g>
		<g id="Group-37" transform="translate(26.000000, 0.000000)">
			<g id="Clip-36">
			</g>
			<defs>
				<filter id="Adobe_OpacityMaskFilter_2_" filterUnits="userSpaceOnUse" x="-20.7" y="8.8" width="21.2" height="35.5">
					<feColorMatrix  type="matrix" values="1 0 0 0 0  0 1 0 0 0  0 0 1 0 0  0 0 0 1 0"/>
				</filter>
			</defs>
			<mask maskUnits="userSpaceOnUse" x="-20.7" y="8.8" width="21.2" height="35.5" id="mask-7">
				<g class="st6">
					<path id="path-6" class="st2" d="M-4.5,21.2h-3.3v-0.8c0-0.8-0.2-1.5-0.5-2.1c-0.4-0.6-1.1-1-1.8-0.9c-0.4,0-0.8,0.1-1.1,0.3
						c-0.3,0.2-0.5,0.4-0.7,0.7c-0.2,0.3-0.3,0.7-0.3,1c-0.1,0.4-0.1,0.8-0.1,1.2c0,0.5,0,0.9,0,1.2c0,0.3,0.1,0.6,0.2,0.9
						c0.1,0.3,0.3,0.5,0.6,0.7c0.3,0.2,0.7,0.4,1,0.6l2.5,1.1c0.6,0.3,1.2,0.6,1.8,1.1c0.4,0.4,0.8,0.9,1,1.4
						c0.3,0.6,0.4,1.2,0.5,1.9c0.1,0.8,0.1,1.6,0.1,2.5c0,1-0.1,2-0.3,3c-0.2,0.8-0.5,1.6-0.9,2.3c-0.5,0.7-1.1,1.2-1.7,1.5
						c-0.8,0.4-1.7,0.6-2.7,0.6c-0.8,0-1.5-0.1-2.2-0.5c-2.1-0.9-3.4-3.1-3.4-5.5v-1.3h3.3v1.1c0,0.6,0.2,1.2,0.5,1.8
						c0.4,0.6,1.1,0.9,1.8,0.8c0.4,0,0.9-0.1,1.3-0.3c0.3-0.2,0.5-0.4,0.7-0.7c0.2-0.4,0.3-0.8,0.3-1.2c0-0.5,0.1-1,0.1-1.5
						c0-0.5,0-1.1-0.1-1.6c0-0.4-0.1-0.7-0.3-1c-0.1-0.3-0.3-0.5-0.6-0.6c-0.3-0.2-0.6-0.4-1-0.5L-12,27c-1.2-0.4-2.2-1.3-2.8-2.4
						c-0.5-1.2-0.8-2.6-0.7-3.9c0-0.9,0.1-1.8,0.3-2.7c0.2-0.8,0.6-1.5,1-2.2c0.5-0.6,1.1-1.1,1.8-1.5c0.8-0.4,1.6-0.6,2.5-0.5
						c0.8,0,1.5,0.2,2.2,0.5c0.6,0.3,1.2,0.8,1.7,1.3c0.5,0.5,0.8,1.1,1.1,1.8c0.3,0.7,0.4,1.4,0.4,2.1L-4.5,21.2L-4.5,21.2z"/>
				</g>
			</mask>
			<polygon id="Fill-35" class="st7" points="-20.7,8.8 0.5,8.8 0.5,44.2 -20.7,44.2 			"/>
		</g>
		<g id="Group-40" transform="translate(40.000000, 0.000000)">
			<g id="Clip-39">
			</g>
			<defs>
				<filter id="Adobe_OpacityMaskFilter_3_" filterUnits="userSpaceOnUse" x="-20.9" y="8.9" width="20.6" height="35.3">
					<feColorMatrix  type="matrix" values="1 0 0 0 0  0 1 0 0 0  0 0 1 0 0  0 0 0 1 0"/>
				</filter>
			</defs>
			<mask maskUnits="userSpaceOnUse" x="-20.9" y="8.9" width="20.6" height="35.3" id="mask-9">
				<g class="st8">
					<path id="path-8" class="st2" d="M-5.3,33.4c0,0.8-0.1,1.6-0.4,2.3C-6,36.4-6.4,37-6.9,37.5c-0.5,0.5-1.1,1-1.7,1.2
						c-1.3,0.6-2.8,0.6-4.1,0c-1.3-0.6-2.3-1.7-2.8-3.1c-0.3-0.7-0.4-1.5-0.4-2.3V13.9h3.3V33c-0.1,0.7,0.2,1.4,0.6,2
						c0.8,0.8,2.1,0.8,2.9,0c0.4-0.5,0.6-1.3,0.6-2V13.9h3.3L-5.3,33.4L-5.3,33.4z"/>
				</g>
			</mask>
			<polygon id="Fill-38" class="st9" points="-20.9,8.9 -0.3,8.9 -0.3,44.2 -20.9,44.2 			"/>
		</g>
		<g id="Group-43" transform="translate(53.000000, 0.000000)">
			<g id="Clip-42">
			</g>
			<defs>
				<filter id="Adobe_OpacityMaskFilter_4_" filterUnits="userSpaceOnUse" x="-20.1" y="8.9" width="21.7" height="35.1">
					<feColorMatrix  type="matrix" values="1 0 0 0 0  0 1 0 0 0  0 0 1 0 0  0 0 0 1 0"/>
				</filter>
			</defs>
			<mask maskUnits="userSpaceOnUse" x="-20.1" y="8.9" width="21.7" height="35.1" id="mask-11">
				<g class="st10">
					<path id="path-10" class="st2" d="M-15.1,13.9h5.2c3.8,0,5.8,2.5,5.8,7.4c0,1.3-0.2,2.5-0.6,3.7c-0.5,1.1-1.2,2-2.2,2.5
						L-3.4,39h-3.5l-3-10.7h-1.9V39h-3.3V13.9L-15.1,13.9z M-11.8,25.1h1.9c0.5,0,0.9-0.1,1.4-0.3c0.3-0.2,0.6-0.4,0.8-0.8
						c0.2-0.4,0.3-0.8,0.4-1.2c0.1-0.6,0.1-1.1,0.1-1.7c0-0.6,0-1.1-0.1-1.7c0-0.4-0.2-0.9-0.4-1.2c-0.2-0.3-0.5-0.6-0.8-0.8
						c-0.5-0.2-0.9-0.3-1.4-0.3h-1.7V25.1L-11.8,25.1z"/>
				</g>
			</mask>
			<polygon id="Fill-41" class="st11" points="-20.1,8.9 1.6,8.9 1.6,44 -20.1,44 			"/>
		</g>
	</g>
</g>
<defs>
	<filter id="Adobe_OpacityMaskFilter_5_" filterUnits="userSpaceOnUse" x="46.3" y="9" width="22.9" height="35.1">
		<feColorMatrix  type="matrix" values="1 0 0 0 0  0 1 0 0 0  0 0 1 0 0  0 0 0 1 0"/>
	</filter>
</defs>
<mask maskUnits="userSpaceOnUse" x="46.3" y="9" width="22.9" height="35.1" id="mask-5_1_">
	<g class="st12">
		<path id="path-4_2_" class="st2" d="M56.4,14h2.7L64.2,39h-3.3l-1-5.4h-4.4l-1,5.4h-3.3L56.4,14L56.4,14z M57.8,21.2L57.8,21.2
			l-1.7,9.1h3.3L57.8,21.2L57.8,21.2z"/>
	</g>
</mask>
<polygon id="Fill-32_1_" class="st13" points="46.3,9 69.2,9 69.2,44 46.3,44 "/>
</svg>
